<?xml version="1.0" standalone="no"?><!DOCTYPE svg PUBLIC "-//W3C//DTD SVG 1.1//EN" "http://www.w3.org/Graphics/SVG/1.1/DTD/svg11.dtd"><svg t="1668753327171" class="icon" viewBox="0 0 1024 1024" version="1.1" xmlns="http://www.w3.org/2000/svg" p-id="1292" xmlns:xlink="http://www.w3.org/1999/xlink" width="200" height="200"><path d="M916.48 107.52L113.338182 910.661818M113.338182 945.570909c-8.843636 0-17.92-3.490909-24.669091-10.24a34.676364 34.676364 0 0 1 0-49.338182L891.810909 82.850909a34.676364 34.676364 0 0 1 49.338182 0c13.730909 13.730909 13.730909 35.84 0 49.338182L138.007273 935.330909c-6.749091 6.749091-15.592727 10.24-24.669091 10.24z" p-id="1293"></path><path d="M916.48 910.661818L113.338182 107.52M916.48 945.570909c-8.843636 0-17.92-3.490909-24.669091-10.24L88.669091 132.189091a34.676364 34.676364 0 0 1 0-49.338182 34.676364 34.676364 0 0 1 49.338182 0l803.141818 803.141818c13.730909 13.730909 13.730909 35.84 0 49.338182-6.749091 6.749091-15.825455 10.24-24.669091 10.24z" p-id="1294"></path></svg>